<?xml version="1.0" encoding="utf-8"?>
<!-- Generator: Adobe Illustrator 16.0.0, SVG Export Plug-In . SVG Version: 6.00 Build 0)  -->
<!DOCTYPE svg PUBLIC "-//W3C//DTD SVG 1.1//EN" "http://www.w3.org/Graphics/SVG/1.1/DTD/svg11.dtd">
<svg version="1.1"
	 id="Ebene_1" xmlns:dc="http://purl.org/dc/elements/1.1/" xmlns:cc="http://creativecommons.org/ns#" xmlns:rdf="http://www.w3.org/1999/02/22-rdf-syntax-ns#" xmlns:svg="http://www.w3.org/2000/svg" xmlns:sodipodi="http://sodipodi.sourceforge.net/DTD/sodipodi-0.dtd" xmlns:inkscape="http://www.inkscape.org/namespaces/inkscape" sodipodi:docname="B113074B.svg" inkscape:version="0.48.4 r9939"
	 xmlns="http://www.w3.org/2000/svg" xmlns:xlink="http://www.w3.org/1999/xlink" x="0px" y="0px" width="230px" height="26px"
	 viewBox="0 0 230 26" enable-background="new 0 0 230 26" xml:space="preserve">
<title  id="title3016">Pepperl+Fuchs</title>
<sodipodi:namedview  inkscape:cy="-35.576498" inkscape:cx="375.90737" inkscape:zoom="1.302777" showgrid="false" guidetolerance="10" gridtolerance="10" objecttolerance="10" pagecolor="#ffffff" bordercolor="#666666" borderopacity="1" id="namedview35" inkscape:current-layer="Ebene_1" inkscape:window-maximized="1" inkscape:window-y="48" inkscape:window-x="-8" inkscape:window-height="962" inkscape:window-width="1280" inkscape:pageshadow="2" inkscape:pageopacity="0">
	</sodipodi:namedview>
<polygon id="polygon3" points="147.287,23.939 150.594,23.939 150.594,17.048 156.91,17.048 156.91,14.17 150.594,14.17 
	150.594,10.677 157.846,10.677 157.846,7.663 147.287,7.663 "/>
<path id="path5" d="M169.464,17.048v1.37c0,0.983-0.277,1.699-1.07,2.283c-0.659,0.489-1.23,0.503-2.053,0.481
	c-0.736-0.024-1.218-0.063-1.823-0.481c-0.835-0.567-1.158-1.277-1.21-2.283l-0.07-1.37V7.663h-3.286V18.12
	c0,0.387,0.029,0.605,0.096,0.979c0.428,2.547,1.832,4.346,4.33,5.003c0.762,0.198,1.224,0.161,2.011,0.16
	c0.743-0.003,1.174-0.02,1.894-0.204c2.514-0.656,4.245-2.388,4.424-4.979l0.066-0.983V7.663h-3.308V17.048z"/>
<polygon id="polygon7" points="199.811,14.078 193.83,14.078 193.83,7.663 190.546,7.663 190.546,23.943 193.83,23.943 
	193.83,16.982 199.811,16.982 199.811,23.943 203.074,23.943 203.074,7.663 199.811,7.663 "/>
<path id="path9" d="M188.356,17.664h-3.196v0.504c0,1.785-1.549,3.289-3.284,3.193c-2.51-0.159-3.375-1.621-3.899-3.585
	c-0.205-0.751-0.186-1.376-0.158-2.259c0.025-0.937,0.229-1.848,0.413-2.377c0.589-1.688,1.94-2.908,3.784-2.831
	c1.221,0.055,2.059,0.542,2.712,1.577c0.291,0.461,0.376,0.782,0.456,1.323h3.173l-0.071-0.407
	c-0.136-0.824-0.362-2.218-1.984-3.928c-1.209-1.282-2.564-1.587-4.378-1.578c-1.573,0.009-2.528,0.306-3.876,1.121
	c-2.66,1.601-3.334,4.177-3.425,7.188c-0.112,4.251,2.101,8.724,6.845,8.818c3.329,0.043,6.26-1.905,6.842-5.209
	c0.086-0.481,0.104-0.767,0.07-1.256L188.356,17.664z"/>
<path id="path11" d="M208.629,11.617c0.379-2.319,4.811-1.919,5.291,0.43c0.028,0.417,0.036,0.486,0.036,0.486l3.257,0.002
	l-0.023-0.388c-0.146-2.92-2.928-4.876-6.215-4.849c-2.955,0-5.642,1.913-5.549,5.218c0.043,1.822,1.289,3.086,2.852,3.701
	c3.959,1.593,5.85,0.906,5.984,3.295c0.088,1.58-1.83,1.971-2.85,1.88c-1.382-0.12-2.617-0.517-3.047-1.837
	c-0.098-0.299-0.135-0.481-0.135-0.797v-0.223h-3.287v0.48c0,3.49,3.188,5.416,6.452,5.34c3.138-0.078,6.251-1.776,6.118-5.237
	C217.26,12.473,208.043,15.222,208.629,11.617z"/>
<polygon id="polygon13" points="93.295,23.97 104.495,23.97 104.495,20.979 96.602,20.979 96.602,17.048 103.857,17.048 
	103.857,14.194 96.602,14.194 96.602,10.679 104.495,10.679 104.495,7.686 93.295,7.686 "/>
<polygon id="polygon15" points="51.988,23.97 63.189,23.97 63.189,20.979 55.295,20.979 55.295,17.048 62.551,17.048 62.551,14.194 
	55.295,14.194 55.295,10.679 63.189,10.679 63.189,7.686 51.988,7.686 "/>
<polygon id="polygon17" points="124.992,20.959 124.992,7.682 121.689,7.682 121.689,23.939 132.237,23.939 132.237,20.959 "/>
<path id="path19" d="M73.542,7.72c-0.254-0.044-0.49-0.044-0.8-0.044h-7.453v16.292h3.337v-5.839h3.792l0.667-0.043
	c2.601-0.18,4.091-2.724,4.134-5.125C77.263,10.853,76.12,8.27,73.542,7.72z M72.351,15.227l-0.571,0.045h-3.154v-4.739h3.269
	c0.181,0,0.297,0.045,0.457,0.045c1.144,0.117,1.667,1.254,1.647,2.383C73.977,14.053,73.4,15.142,72.351,15.227z"/>
<path id="path21" d="M87.516,7.731c-0.252-0.045-0.49-0.045-0.797-0.045h-7.437v16.254h3.33V18.12h3.786l0.664-0.046
	c2.598-0.18,4.081-2.719,4.126-5.114C91.23,10.86,90.094,8.279,87.516,7.731z M86.329,15.22l-0.571,0.044h-3.146v-4.723h3.265
	c0.175,0,0.293,0.044,0.452,0.044c1.14,0.114,1.663,1.25,1.644,2.375C87.953,14.049,87.378,15.136,86.329,15.22z"/>
<path id="path23" d="M119,22.236c-0.24-1.325-0.092-2.029-0.275-3.443c-0.043-0.478-0.522-1.742-1.407-2.321l-0.46-0.3l0.639-0.455
	c0.902-0.643,1.123-1.404,1.388-2.48c0.223-0.908,0.223-1.494-0.023-2.393c-0.345-1.271-0.828-2.137-2.015-2.709
	c-0.73-0.349-1.227-0.436-2.035-0.436h-8.124v16.241h3.276v-6.283h3.456h0.48c0.433,0,0.771,0.156,1.023,0.432
	c0.683,0.729,0.797,1.457,0.868,2.528c0.068,1.092-0.006,1.793,0.318,2.87l0.135,0.453h3.115l-0.155-0.568L119,22.236z
	 M115.697,13.053c-0.113,1.184-0.818,1.783-1.818,1.845l-0.778,0.045h-3.139v-4.372h3.527h0.409
	c0.935,0.091,1.596,0.362,1.799,1.684C115.719,12.484,115.719,12.781,115.697,13.053z"/>
<polygon id="polygon25" points="144.828,17.045 141.057,17.045 141.057,13.095 137.758,13.095 137.758,17.045 133.981,17.045 
	133.981,19.941 137.758,19.941 137.758,23.941 141.057,23.941 141.057,19.941 144.828,19.941 "/>
<path id="path27" d="M46.348,7.731c-0.25-0.045-0.486-0.045-0.799-0.045h-7.435v16.254h3.329v-5.821h3.785l0.663-0.047
	c2.598-0.179,4.082-2.718,4.129-5.111C50.065,10.86,48.926,8.279,46.348,7.731z M45.161,15.218l-0.571,0.046h-3.147v-4.723h3.261
	c0.179,0,0.297,0.044,0.457,0.044c1.144,0.114,1.665,1.25,1.643,2.375C46.785,14.049,46.21,15.136,45.161,15.218z"/>
<polygon id="polygon29" fill="#00A587" points="12.483,1.576 34.846,1.576 34.846,23.938 12.483,23.938 "/>
<path id="path31" fill="#FFFFFF" d="M25.87,12.214c-0.349,0-7.603,0-7.603,0v9.489h2.235v-7.246h5.367
	c0.649,0,1.096,0.607,1.096,1.094c0,0.897-0.738,1.135-1.096,1.135c-0.205,0-2.01,0-2.01,0v-1.34h-2.233v3.6h4.243
	c2.036,0,3.331-1.663,3.331-3.399C29.209,13.804,27.872,12.214,25.87,12.214z"/>
<path id="path33" fill="#FFFFFF" d="M21.627,11.327h2.233c0,0,0-0.612,0-1.378h4.851V7.713H23.86c0-0.433,0-0.743,0-0.816
	c0-0.515,0.405-0.846,0.833-0.846c0.977,0,4.021,0,4.021,0V3.817c0,0-3.861,0-4.005,0c-1.826,0-3.082,1.503-3.082,3.08v0.816h-3.359
	v2.235h3.359V11.327z"/>
</svg>
